# xmcd CD database file
#
# Track frame offsets:
#	150
#	15906
#	36074
#	54988
#	72057
#	90930
#	108462
#	126913
#	146025
#	164950
#	182881
#	202130
#	219335
#
# Disc length: 2984 seconds
#
# Revision: 0
# Processed by: cddbd v1.5.2PL0 Copyright (c) Steve Scherf et al.
# Submitted via: CDex 1.51
#
DISCID=b80ba60d
DTITLE=Paul Hardcastle - Hardcastle 4
DYEAR=2005
DGENRE=Jazz
TTITLE0=Serene
TTITLE1=Freefall
TTITLE2=Smooth Jazz Is Bumpin
TTITLE3=Keep It Real
TTITLE4=Moments In Time
TTITLE5=Was It Love
TTITLE6=Midnight Moon
TTITLE7=Eastern Winds
TTITLE8=Where Are You Now
TTITLE9=Straight Ahead
TTITLE10=Time To Reflect
TTITLE11=Journey Of The Lost Tribes
TTITLE12=(Untitled)
EXTD=YEAR: 2005
EXTT0=
EXTT1=
EXTT2=
EXTT3=
EXTT4=
EXTT5=
EXTT6=
EXTT7=
EXTT8=
EXTT9=
EXTT10=
EXTT11=
EXTT12=
PLAYORDER=
